<svg width="95.99999999999999" height="96.99999999999999" xmlns="http://www.w3.org/2000/svg" xml:space="preserve" version="1.1">

 <g>
  <title>Layer 1</title>
  <g id="svg_1">
   <path id="svg_2" fill="#00ABED" d="m81.7,14.1c-9.4,-9.4 -20.6,-14.1 -33.6,-14.1c-8.6,0 -16.6,2.2 -24.1,6.5c-7.4,4.3 -13.3,10.2 -17.6,17.5c-4.3,7.4 -6.4,15.5 -6.4,24.3c0,3.9 0.4,7.7 1.2,11.3c1.9,8.4 6.1,16 12.5,22.7c3.1,3.2 6.5,5.9 10.1,8.1c7.1,4.2 15.2,6.3 24.3,6.3s16.5,-2 23.4,-6c3.6,-2.1 7,-4.7 10.2,-7.9c6.6,-6.6 10.8,-14.2 12.7,-22.9c0.8,-3.6 1.2,-7.3 1.2,-11.2c0.2,-13.7 -4.5,-25.1 -13.9,-34.6zm-5.3,45.6c-1.4,4.1 -3.8,7.7 -6.9,10.9c-5.8,6 -12.9,9 -21.2,9c-7.3,0 -13.9,-2.3 -19.5,-6.9c-4.4,-3.6 -7.5,-7.9 -9.2,-13c-1.2,-3.4 -1.8,-7.1 -1.8,-11.1c0,-7.7 2,-14.2 6.1,-19.6c0.8,-1 1.6,-2.1 2.6,-3c5.8,-5.9 12.9,-8.9 21.5,-8.9s15.6,3 21.5,9.1c0.8,0.8 1.4,1.6 2.1,2.4c4.5,5.6 6.7,12.2 6.7,19.9c-0.1,4 -0.7,7.8 -1.9,11.2z" class="st0"/>
   <path id="svg_3" fill="#00ABED" d="m43.8,44.2l0,-12.5l8.3,0l0,12.5l12.5,0l0,8.3l-12.5,0l0,12.5l-8.3,0l0,-12.5l-12.5,0l0,-8.3c0,0 12.5,0 12.5,0z" class="st2"/>
  </g>
 </g>
</svg>