<?xml version="1.0" encoding="utf-8"?>
<!-- Generator: Adobe Illustrator 22.0.0, SVG Export Plug-In . SVG Version: 6.00 Build 0)  -->
<svg version="1.1" id="Layer_1" xmlns="http://www.w3.org/2000/svg" xmlns:xlink="http://www.w3.org/1999/xlink" x="0px" y="0px"
	 viewBox="0 0 781 182" style="enable-background:new 0 0 781 182;" xml:space="preserve">
<style type="text/css">
	.st0{fill:#FFCF21;}
	.st1{fill:#3C3C3B;}
	.st2{fill:#C21727;}
	.st3{fill:none;}
</style>
<path class="st0" d="M182.1,91.9c-9.4-9.4-20.6-14.1-33.6-14.1c-8.6,0-16.6,2.2-24.1,6.5c-7.4,4.3-13.3,10.2-17.6,17.5
	c-4.3,7.4-6.4,15.5-6.4,24.3c0,3.9,0.4,7.7,1.2,11.3c1.9,8.4,6.1,16,12.5,22.7c3.1,3.2,6.5,5.9,10.1,8.1c7.1,4.2,15.2,6.3,24.3,6.3
	s16.5-2,23.4-6c3.6-2.1,7-4.7,10.2-7.9c6.6-6.6,10.8-14.2,12.7-22.9c0.8-3.6,1.2-7.3,1.2-11.2C196.2,112.8,191.5,101.4,182.1,91.9z
	 M176.8,137.5c-1.4,4.1-3.8,7.7-6.9,10.9c-5.8,6-12.9,9-21.2,9c-7.3,0-13.9-2.3-19.5-6.9c-4.4-3.6-7.5-7.9-9.2-13
	c-1.2-3.4-1.8-7.1-1.8-11.1c0-7.7,2-14.2,6.1-19.6c0.8-1,1.6-2.1,2.6-3c5.8-5.9,12.9-8.9,21.5-8.9s15.6,3,21.5,9.1
	c0.8,0.8,1.4,1.6,2.1,2.4c4.5,5.6,6.7,12.2,6.7,19.9C178.6,130.3,178,134.1,176.8,137.5z"/>
<path class="st1" d="M0,172.2v-92h14.5c8.4,0,14.5,0.5,18.4,1.6C38.4,83.3,42.8,86,46,90s4.9,8.6,4.9,14c0,3.5-0.7,6.7-2.2,9.5
	c-1.5,2.9-3.9,5.5-7.2,8c5.6,2.6,9.7,5.9,12.3,9.8c2.6,3.9,3.9,8.6,3.9,14s-1.3,9.9-4,14.1s-6.1,7.4-10.3,9.5
	c-4.2,2.1-10,3.2-17.5,3.2L0,172.2L0,172.2z M17.5,96.9v19.4h3.8c4.3,0,7.4-0.9,9.5-2.7s3.1-4.2,3.1-7.3c0-2.9-1-5.2-3-6.8
	c-2-1.7-5-2.5-9-2.5C22,96.9,17.5,96.9,17.5,96.9z M17.5,131.9v23.6h4.4c7.3,0,12.2-0.9,14.7-2.8s3.8-4.5,3.8-8c0-4-1.5-7.1-4.5-9.4
	c-3-2.3-7.9-3.4-14.8-3.4L17.5,131.9L17.5,131.9z M79.1,76.2c3,0,5.6,1.1,7.7,3.3s3.2,4.8,3.2,7.9s-1.1,5.6-3.2,7.8
	c-2.1,2.2-4.7,3.2-7.6,3.2s-5.6-1.1-7.8-3.3s-3.2-4.8-3.2-8s1.1-5.6,3.2-7.7C73.5,77.2,76.1,76.2,79.1,76.2z M70.5,104.2h17.1v68
	H70.5V104.2z M297,96.4l-12.2,11.7c-8.3-8.8-17.7-13.2-28.1-13.2c-8.8,0-16.2,3-22.2,9s-9,13.4-9,22.2c0,6.1,1.3,11.6,4,16.3
	c2.7,4.8,6.4,8.5,11.3,11.2c4.9,2.7,10.3,4.1,16.2,4.1c5.1,0,9.7-0.9,13.9-2.9c4.2-1.9,8.8-5.4,13.9-10.4l11.9,12.4
	c-6.8,6.6-13.2,11.2-19.3,13.8c-6,2.6-12.9,3.9-20.7,3.9c-14.3,0-26-4.5-35.1-13.6s-13.7-20.7-13.7-34.9c0-9.2,2.1-17.3,6.2-24.4
	s10.1-12.9,17.8-17.2s16.1-6.5,25-6.5c7.6,0,14.9,1.6,21.9,4.8C285.9,85.9,292,90.5,297,96.4z M340.4,80.2h17.8l35.4,92h-18.2
	l-7.2-18.9h-37.5l-7.5,18.9h-18.2L340.4,80.2L340.4,80.2L340.4,80.2z M349.4,104.6l-12.3,31.6h24.6L349.4,104.6z M455.3,92.7
	l-13,11.4c-4.5-6.3-9.2-9.5-13.9-9.5c-2.3,0-4.2,0.6-5.6,1.8c-1.5,1.2-2.2,2.6-2.2,4.2s0.5,3,1.6,4.4c1.4,1.8,5.7,5.8,12.8,11.8
	c6.7,5.6,10.7,9.1,12.1,10.6c3.5,3.6,6.1,7,7.5,10.3c1.5,3.3,2.2,6.9,2.2,10.7c0,7.5-2.6,13.8-7.8,18.7c-5.2,4.9-12,7.4-20.4,7.4
	c-6.5,0-12.3-1.6-17.1-4.8c-4.9-3.2-9-8.3-12.5-15.1l14.7-8.9c4.4,8.1,9.5,12.2,15.3,12.2c3,0,5.5-0.9,7.6-2.6s3.1-3.8,3.1-6.1
	c0-2.1-0.8-4.2-2.3-6.3c-1.5-2.1-5-5.3-10.2-9.6c-10-8.2-16.5-14.5-19.4-18.9c-2.9-4.4-4.4-8.9-4.4-13.3c0-6.4,2.4-11.8,7.3-16.4
	c4.9-4.6,10.9-6.8,18-6.8c4.6,0,9,1.1,13.1,3.2C446,83.2,450.5,87.1,455.3,92.7L455.3,92.7L455.3,92.7z"/>
<path class="st2" d="M144.2,122v-12.5h8.3V122H165v8.3h-12.5v12.5h-8.3v-12.5h-12.5V122C131.7,122,144.2,122,144.2,122z"/>
<g>
	<path class="st2" d="M15.8,61.8H10c-0.8,0-1.7,0-2.6,0.1S5.3,61.9,3.9,62l-0.4-0.4c0.1-9.4,0.2-18.9,0.2-28.3v-4.8c0-1.5,0-3,0-4.6
		c0-1.6-0.1-3.4-0.1-5.4S3.4,14,3.3,11.2l0.4-0.4c1.3,0,2.3,0,3.2,0c0.9,0,1.8,0,2.6,0s1.7-0.1,2.7-0.1c0.9,0,2.1-0.1,3.5-0.2
		l0.4,0.4c-0.1,3.2-0.2,6.4-0.2,9.6s-0.1,6.4-0.1,9.5c0,5.3,0,10.5,0.1,15.7s0.2,10.4,0.4,15.6C16.2,61.3,15.8,61.8,15.8,61.8z
		 M37.7,39.6v13.2h3c2,0,3.6-0.1,4.9-0.1c1.3,0,2.4,0,3.3-0.1c0.9,0,1.7,0,2.4-0.1c0.7,0,1.5-0.1,2.3-0.1l0.4,0.4
		c-0.1,1-0.2,1.8-0.2,2.4c0,0.6-0.1,1.2-0.1,1.8c0,0.6,0,1.2-0.1,1.9c0,0.7-0.1,1.5-0.1,2.5L53,61.8H35.8c-1.5,0-2.8,0-3.8,0
		c-1.1,0-2.1,0-3,0.1S27,62,25.9,62l-0.4-0.4c0-1.5,0.1-2.8,0.1-4.1c0-1.3,0-2.6,0.1-4.1c0-1.5,0-3,0-4.8v-6.1c0-2.6,0-5.3,0-8.2
		c0-2.9,0-5.7-0.1-8.5s-0.1-5.5-0.1-8s-0.2-4.8-0.3-6.7l0.4-0.4c4.5,0.1,9.1,0.1,13.8,0s9.1-0.1,13.3-0.2l0.4,0.4
		c-0.1,0.9-0.2,1.6-0.2,2.2c0,0.6,0,1.2-0.1,1.7c0,0.6,0,1.1-0.1,1.8c0,0.6-0.1,1.4-0.1,2.3l-0.4,0.4h-1.3c-1.1,0-2.2,0-3.3,0
		c-1.1,0-2.2,0-3.3,0h-6.9v5.9c0,0.8,0,1.7,0,2.6c0,0.9,0,2.1,0,3.5h5.7c0.8,0,1.6,0,2.5,0c0.8,0,1.7,0,2.6-0.1c0.9,0,2-0.1,3.3-0.1
		l0.4,0.4c-0.1,0.9-0.2,1.7-0.2,2.3s0,1.2-0.1,1.7c0,0.5,0,1-0.1,1.6s-0.1,1.3-0.1,2.2l-0.4,0.4c-1.7,0-3.5-0.1-5.2-0.1L37.7,39.6
		L37.7,39.6z"/>
</g>
<g>
	<path class="st2" d="M71.3,39.6v13.2h3c2,0,3.6-0.1,4.9-0.1c1.3,0,2.4,0,3.3-0.1s1.7,0,2.4-0.1s1.5-0.1,2.3-0.1l0.4,0.4
		c-0.1,1-0.2,1.8-0.2,2.4s-0.1,1.2-0.1,1.8c0,0.6-0.1,1.2-0.1,1.9c0,0.7-0.1,1.5-0.1,2.5l-0.4,0.4H69.5c-1.5,0-2.8,0-3.8,0
		c-1.1,0-2.1,0-3,0.1s-2,0.1-3.1,0.1l-0.4-0.4c0-1.5,0.1-2.8,0.1-4.1c0-1.3,0-2.6,0.1-4.1c0-1.5,0-3,0-4.8v-6.1c0-2.6,0-5.3,0-8.2
		c0-2.9,0-5.7-0.1-8.5s-0.1-5.5-0.1-8S59,13,58.9,11.1l0.4-0.4c4.5,0.1,9.1,0.1,13.8,0s9.1-0.1,13.3-0.2l0.4,0.4
		c-0.1,0.9-0.2,1.6-0.2,2.2c0,0.6-0.1,1.2-0.1,1.7c0,0.6-0.1,1.1-0.1,1.8c0,0.6-0.1,1.4-0.1,2.3l-0.4,0.4h-1.3c-1.1,0-2.2,0-3.3,0
		c-1.1,0-2.2,0-3.3,0h-6.9v5.9c0,0.8,0,1.7,0,2.6c0,0.9,0,2.1,0,3.5h5.7c0.8,0,1.6,0,2.5,0c0.8,0,1.7,0,2.6-0.1c0.9,0,2-0.1,3.3-0.1
		l0.4,0.4c-0.1,0.9-0.2,1.7-0.2,2.3s-0.1,1.2-0.1,1.7c0,0.5-0.1,1-0.1,1.6s-0.1,1.3-0.1,2.2l-0.4,0.4c-1.7,0-3.5-0.1-5.2-0.1
		L71.3,39.6L71.3,39.6z"/>
</g>
<g>
	<path class="st2" d="M105.9,39.6v13.2h3c2,0,3.6-0.1,4.9-0.1c1.3,0,2.4,0,3.3-0.1s1.7,0,2.4-0.1s1.5-0.1,2.3-0.1l0.4,0.4
		c-0.1,1-0.2,1.8-0.2,2.4s-0.1,1.2-0.1,1.8c0,0.6-0.1,1.2-0.1,1.9c0,0.7-0.1,1.5-0.1,2.5l-0.4,0.4H104c-1.5,0-2.8,0-3.8,0
		c-1.1,0-2.1,0-3,0.1S95.3,62,94.1,62l-0.4-0.4c0.1-1.5,0.1-2.8,0.1-4.1c0-1.3,0.1-2.6,0.1-4.1c0-1.5,0-3,0-4.8v-6.1
		c0-2.6,0-5.3,0-8.2c0-2.9-0.1-5.7-0.1-8.5s-0.1-5.5-0.1-8s-0.2-4.8-0.3-6.7l0.4-0.4c4.5,0.1,9.1,0.1,13.8,0s9.1-0.1,13.3-0.2
		l0.4,0.4c-0.1,0.9-0.2,1.6-0.2,2.2c0,0.6-0.1,1.2-0.1,1.7c0,0.6-0.1,1.1-0.1,1.8c0,0.6-0.1,1.4-0.1,2.3l-0.4,0.4h-1.3
		c-1.1,0-2.2,0-3.3,0c-1.1,0-2.2,0-3.3,0h-6.9v5.9c0,0.8,0,1.7,0,2.6c0,0.9,0,2.1,0,3.5h5.7c0.8,0,1.6,0,2.5,0c0.8,0,1.7,0,2.6-0.1
		c0.9,0,2-0.1,3.3-0.1l0.4,0.4c-0.1,0.9-0.2,1.7-0.2,2.3s-0.1,1.2-0.1,1.7c0,0.5-0.1,1-0.1,1.6s-0.1,1.3-0.1,2.2l-0.4,0.4
		c-1.7,0-3.5-0.1-5.2-0.1L105.9,39.6L105.9,39.6z"/>
</g>
<polygon class="st3" points="726.4,107.6 724.4,107.6 724.4,107.6 726.4,107.6 "/>
<g>
	<path class="st2" d="M518.3,150h35.4v14.5h-55.5v-6.2c0-4.3,0.8-8.3,2.4-11.9c1.6-3.6,3.8-6.9,6.6-10.1c2.8-3.1,7.2-6.7,13-10.9
		c5.4-4,9.2-7.6,11.3-10.7s3.2-6.4,3.2-9.9c0-7.5-4.1-11.3-12.3-11.3c-7.2,0-14.1,2.9-20.6,8.6V86.7c7.3-4.7,15.5-7.1,24.6-7.1
		c8.3,0,14.9,2.1,19.8,6.4c4.9,4.3,7.3,10.1,7.3,17.6c0,4.2-0.7,7.9-2.1,11.3c-1.4,3.4-3.4,6.5-6.1,9.5c-2.7,2.9-6.9,6.5-12.8,10.6
		c-5.6,4-9.4,7.1-11.4,9.3C519.2,146.5,518.3,148.4,518.3,150z"/>
	<path class="st2" d="M564.7,124.2c0-14.4,2.7-25.5,8-33.1c5.3-7.6,13-11.4,23.1-11.4c19.2,0,28.8,14.2,28.8,42.6
		c0,14-2.6,24.8-7.8,32.4c-5.2,7.6-12.7,11.4-22.6,11.4C574.5,166,564.7,152,564.7,124.2z M582.3,123.7c0,19.3,4.1,28.9,12.3,28.9
		c8.1,0,12.1-9.9,12.1-29.8c0-19.9-3.9-29.9-11.8-29.9C586.5,93,582.3,103.2,582.3,123.7z"/>
	<path class="st2" d="M654.4,150h35.4v14.5h-55.5v-6.2c0-4.3,0.8-8.3,2.4-11.9c1.6-3.6,3.8-6.9,6.6-10.1c2.8-3.1,7.2-6.7,13-10.9
		c5.4-4,9.2-7.6,11.3-10.7s3.2-6.4,3.2-9.9c0-7.5-4.1-11.3-12.3-11.3c-7.2,0-14.1,2.9-20.6,8.6V86.7c7.3-4.7,15.5-7.1,24.6-7.1
		c8.3,0,14.9,2.1,19.8,6.4c4.9,4.3,7.3,10.1,7.3,17.6c0,4.2-0.7,7.9-2.1,11.3c-1.4,3.4-3.4,6.5-6.1,9.5c-2.7,2.9-6.9,6.5-12.8,10.6
		c-5.6,4-9.4,7.1-11.4,9.3C655.4,146.5,654.4,148.4,654.4,150z"/>
	<path class="st2" d="M751.6,81v53h11.8v12.7h-11.8v17.8h-15.8v-17.8h-37.3V134c7.7-8.6,15-17.8,21.7-27.4
		C726.9,97,732,88.4,735.5,81H751.6z M713.8,134.1h21.9v-30.6c-1.7,3.2-4.2,7.2-7.4,11.8C725.1,119.8,720.3,126.1,713.8,134.1z"/>
</g>
</svg>
